<?xml version="1.0" encoding="utf-8"?>
<!-- Generator: Adobe Illustrator 23.0.5, SVG Export Plug-In . SVG Version: 6.00 Build 0)  -->
<svg version="1.1" id="Layer_1" xmlns="http://www.w3.org/2000/svg" xmlns:xlink="http://www.w3.org/1999/xlink" x="0px" y="0px"
	 viewBox="0 0 800 800" style="enable-background:new 0 0 800 800;" xml:space="preserve">
<style type="text/css">
	.st0{fill-rule:evenodd;clip-rule:evenodd;fill:#232733;}
</style>
<g>
	<path class="st0" d="M684.4,647.7c-4.1,0-8.1,0.9-11.9,2.8c-4.4,1.9-8.8,3.8-12.8,5.3l-5.9,2.5l-7.8,3.1l0,0
		C560,696.1,470,716.7,386.6,718.3c-3.1,0-6.3,0-9.1,0c-131.3,0-238.1-60.9-346.3-120.6c-3.7-1.9-7.5-3.1-11.2-3.1
		c-5,0-9.7,1.9-13.4,5.3c-3.7,3.4-5.9,8.4-5.6,13.4c0,6.6,3.4,12.5,8.4,16.6c101.3,88.1,212.5,169.7,361.9,170c2.8,0,5.9,0,8.8,0
		c95-2.2,202.5-34.4,285.9-86.6l0.6-0.3c10.9-6.6,21.9-14.1,32.2-22.2c6.3-4.7,10.9-12.2,10.9-20C708.4,657,696.9,647.7,684.4,647.7
		z"/>
	<path class="st0" d="M800,599.2L800,599.2c-0.3-8.4-2.2-14.7-5.6-20l-0.3-0.6l-0.3-0.6c-3.4-3.8-6.9-5.3-10.6-6.9
		c-10.9-4.1-26.9-6.6-45.9-6.6c-13.8,0-29.1,1.3-44.4,4.7v-0.9l-15.3,5h-0.3l-8.7,2.8v0.3c-10.3,4.4-19.4,9.4-28.1,15.6
		c-5.3,4.1-9.7,9.4-10,17.5c0,4.4,2.2,9.4,5.9,12.5c3.8,3.1,8.1,4.1,11.9,4.1c0.9,0,1.9,0,2.5-0.3h0.6h0.6
		c7.5-1.6,18.4-2.5,31.3-4.4c10.9-1.3,22.8-2.2,32.8-2.2c7.2,0,13.7,0.3,18.1,1.6c2.2,0.3,3.8,0.9,4.7,1.6c0.3,0,0.6,0.3,0.6,0.3
		c0.3,0.6,0.3,2.2,0.3,4.4c0,8.4-3.4,24.1-8.4,39.4c-4.7,15.3-10.6,30.6-14.4,40.9c-0.9,2.5-1.6,5-1.6,7.8c0,4.1,1.6,9.1,5,12.5
		c3.4,3.4,8.1,4.7,11.9,4.7h0.3c5.6,0,10.6-2.2,14.7-5.6c39.1-35,52.5-91.3,53.1-122.8L800,599.2z"/>
	<path class="st0" d="M442.8,222.7c-22.8,1.9-49.4,3.4-75.9,6.9c-40.6,5.3-81.3,12.5-114.7,28.4c-65.3,26.6-109.4,82.8-109.4,165.9
		c0,104.1,67.2,157.2,151.9,157.2c28.1,0,51.2-3.4,72.2-8.7c33.8-10.6,61.9-30,95.3-65.3c19.4,26.6,24.7,38.7,58.1,67.2
		c8.7,3.4,17.8,3.4,24.7-1.9c21.2-17.8,58.4-49.4,77.8-67.2c8.8-7.2,7.2-17.8,1.9-26.6c-19.4-24.7-38.8-45.9-38.8-93.8V226.1
		c0-67.2,5.3-128.8-44.1-174.7C501.2,14.2,437.8,0.2,388.1,0.2h-21.3c-90,5.3-185.3,44.1-206.6,155.3c-3.4,14.1,7.2,19.4,14.1,21.2
		l98.8,12.5c10.6-1.9,15.9-10.6,17.5-19.4c8.8-38.7,40.6-58.4,75.9-61.9h7.2c21.3,0,44.1,8.7,56.6,26.6
		c14.1,21.2,12.5,49.4,12.5,74.1L442.8,222.7L442.8,222.7z M423.4,432.7c-12.5,24.7-33.4,40.6-56.6,45.9c-3.4,0-8.8,1.9-14.1,1.9
		c-38.7,0-61.9-30-61.9-74.1c0-56.6,33.4-83.1,75.9-95.3c22.8-5.3,49.4-7.2,75.9-7.2v21.2C442.8,365.8,444.7,397.3,423.4,432.7z"/>
</g>
</svg>
