<?xml version="1.0" encoding="utf-8"?>
<!-- Generator: Adobe Illustrator 23.0.5, SVG Export Plug-In . SVG Version: 6.00 Build 0)  -->
<svg version="1.1" id="Layer_1" xmlns="http://www.w3.org/2000/svg" xmlns:xlink="http://www.w3.org/1999/xlink" x="0px" y="0px"
	 viewBox="0 0 2500 2500" style="enable-background:new 0 0 2500 2500;" xml:space="preserve">
<style type="text/css">
	.st0{fill-rule:evenodd;clip-rule:evenodd;fill:#232733;}
</style>
<path class="st0" d="M124.3,1188.1c0-32.9,24.8-57.7,56.6-57.7c31.5,0,56.3,24.8,56.3,57.7c0,33.5-24.8,58.1-56.3,58.1
	C149.1,1246.2,124.3,1221.6,124.3,1188.1z M180.9,1257.8c37.9,0,70.2-29.4,70.2-69.7c0-39.9-32.4-69.3-70.2-69.3
	c-38.2,0-70.6,29.4-70.6,69.3C110.3,1228.4,142.7,1257.8,180.9,1257.8z M205,1201.1c-1.6,10.3-10.1,17.5-21.7,17.5
	c-16.7,0-27-14.3-27-30.9c0-17.1,9.2-30.2,26.5-30.2c11.6,0,20,6.6,22.2,16.7h12.3c-2.6-18.8-17.1-28.9-34.7-28.9
	c-25,0-40.3,18-40.3,42.5c0,24.1,16,42.8,41,42.8c16.9,0,30.7-11.4,34.2-29.6L205,1201.1L205,1201.1L205,1201.1z M1251.7,1274.7
	c-4.5,0-4.4-8.6-3.3-21.9c1-11.9,2.8-27.5,2.8-44.2c0-22.8-3.8-44.7-20.9-44.7c-20.4,0-44.2,57.1-49,67.1
	c-6.2,13.3-9.5,10.9-9.5-1.9l-0.3-32.8c0-17.1-9.3-24.3-20.7-24.3c-24.5,0-39.7,22.4-45.2,23.5c-4.7,0.9-8.1-2.2-11.6-6.7l1.7,1.6
	c-4.5-7.8-9.3-11.6-20-16.2c-10.7-4-26.6-2.8-26.6,16.2c0,23.8,24.7,27.6,42.8,27.6v21.9c0.1,4.6-0.7,8.9-2.3,12.8
	c-5.2,13-18,21.9-28.6,21.9c-16.5,0-26.4-8.4-31-21.9c3,4.3-4.6-5.2-4.6-19.5c0-10.9-1.9-29,14.3-45.2c13.3-13.8,10.9-20-0.9-20
	c-39.5,0-75.6,46.1-82.7,46.1c-14.7,0-20-46.1-28.1-46.1c-11.5,0-18.8,41.7-42.9,84.6c-2.8,4.9-5.7,9.9-8.9,14.7
	c-10.5,15.7-13.3,7.6-13.4-2.9v-11.9l0.1-62.3c0-29-30-25.7-41.4-0.5c-10.5,22.3-23.8,47.5-23.8,47.5c-7.1,14.3-11.4,11.9-11.9,2.4
	V1194c0-31.4-24.7-28.5-37.1-7.6l-38.3,66.1l-3.6,6.2c-7.2,11.4-11,11.4-11.4,2.9v-61.8c0-9.5-1-30.4-18.1-30.4
	c-22.8,0-46.1,78.9-58,78.9v-69.4c20-18.1,38.1-59,38.1-90.4c0-12.4-3.8-32.3-20-32.3c-24.7,0-43.8,30.4-43.8,79.9l-1.9,51.4
	c-5.5,14.6-14.2,17.1-36.4,19c-6.3-22.9-20-29.4-33-29.4c-12.8,0-19,9.5-19,18.5c0,20.9,18.7,27.6,38.5,27.7
	c1.4,9.7,1.3,20.2-1,29.4c-3.5,13.7-16.5,24.2-27.9,24.2c-20-0.9-31.4-7.6-35.5-24.2c-9-24.5,3.6-60.7,21.7-77
	c-38.5,11-75.6,40.4-88.9,58.5c-10.9-38.1-12.8-108.5,0-183.6c-48.5,0-102.2,63.3-102.2,127c0,63.2,35.7,103.2,44.2,107.9
	c10.5,5.7,11.9,7.6,7.6,17.1c-14.3,15.2-35.2,79.9-35.2,99.8c0,21.9,1.9,46.6,24.7,46.6c17.1,0,45.6-38.1,57.1-78.9
	c7.6-30.4,8.1-89.5,5.2-114.3c0-1,0.1-2.1,0.4-3.2c3.4-15.8,30.3-35.7,41.5-36.1c-2.4,13.8-2.8,25.9-1.7,36.1c6,29,22.1,49,50.2,49
	c33.9,0,51.6-20.3,56-49c0.7-4.9,1.1-9.8,1.1-14.7c0-5.8-0.3-11-0.8-15.8c11.1-1.7,20.9-4.9,26-8c6.2-6.2,8.5-5.7,8.5,9.5v58.5
	c0,9.5,0.5,19.5,12.4,19.5c9.1,0,21.3-25.4,31.2-49c6.7-15.9,12.4-31,15.4-37.1c7.6-13.8,13.8-13.3,13.8-1.4v64.2
	c0,16.2,7.1,23.3,19,23.3c12.5,0,27.2-24.5,40.2-49c7.8-14.6,15-29.2,20.7-38.5c7.6-12.8,10.9-13.3,10.9-0.5v64.7
	c0,10.9,3.8,23.3,12.9,23.3c10.4,0,25.8-25.1,37.6-49h-0.2c-0.3-1.3,10.1-21.5,16.3-37.6c7.6-20.5,13.3-14.3,13.3,2.9v34.7v21.9
	c0,17.1,7.1,27.6,16.2,27.6c20.4,0,33.3-24.9,45.8-49.5c6.7-13.3,13.3-26.5,20.8-35.7c3.7,4.3,3.5,7.1,8.6,21.9
	c2.8,9.5-11.4,16.2-11.4,38c0,19,8.6,22.8,18.1,22.8s27.6-13.3,27.6-40.9c0-19-4.8-15.2-4.8-28.5c4.8-10.5,33.3-35.2,50.4-36.1
	c-8.6,8.6-15.2,29.5-15.2,43.8c0,5.1,0.5,10,1.5,14.7c5.9,28.4,28.6,49,57.5,49c31.4,0,49.5-24.7,53.7-48.5l0.1-0.5
	c2.3-14.5,3.2-27.3,0.9-45.1c6.7-1.4,15.4-7.6,19.5-11.9c11.9-12.1,15.7,0.5,15.7,18.1v62.3c0,18.1,3.3,26.2,13.8,26.2
	c11.5,0,18.2-20.9,30.5-49.5c5.5-12.8,12.2-27.1,20.8-41.8c6.7-14.3,10.9-12.9,10.9-0.5v49.5c0,30.4,7.6,41.8,20.9,41.8
	c13.8,0,28.1-16.2,37.6-35.2c3-6.4,4.3-10.9,4.6-13.8h-6.2C1267,1267.4,1260.6,1274.7,1251.7,1274.7L1251.7,1274.7z M1082.4,1202.9
	c-21.5,0-23.3-13.3-15.2-13.3C1083.4,1189.6,1090,1202.9,1082.4,1202.9z M386.2,1389.3c-4.8,15.2-17.1,38.1-28.5,38.1
	c-13.3,0-16.2-30.5-16.2-30.5c0.9-33.3,20.9-86.5,36.1-103.6c9.5-7.6,11.4-4.8,11.4,6.6C391.9,1317.1,392.9,1368.4,386.2,1389.3
	L386.2,1389.3z M380.5,1262.9c-4.8,10.4-8.6,28.5-19,15.2c-21.9-29.5-27.6-96-27.6-98.9c0-59.9,22.8-98.9,63.7-115.1
	C369.1,1128.7,370,1221,380.5,1262.9L380.5,1262.9z M522.7,1192c5.6-2.3,11.2,4.6,15,15.3C515.4,1206,513.7,1195.9,522.7,1192z
	 M635.4,1067.9c8.6,0,12.4,53.3-16.2,91.3c-2.4-9.1-2.9-27.3-3-36C615.9,1121.7,615.2,1067.9,635.4,1067.9z M935,1284.7
	c-6.6,0.5-11.9-4.7,0.5-23.8C940.3,1253.6,943.6,1284.7,935,1284.7z"/>
<path class="st0" d="M616.3,1123.2c0.1,0.2,0.1-0.3,0.1-2C616.4,1116.3,616.2,1118.2,616.3,1123.2z M2385,1245.7
	c-0.5,1.2-1.1,2.3-1.6,3.3c-7,14.5-13.3,21.9-22.2,21.9c-4.5,0-4.4-8.6-3.3-21.9c1-11.9,2.8-27.6,2.8-44.2
	c0-22.8-3.8-44.7-20.9-44.7c-20.4,0-44.2,57.1-49,67c-6.2,13.3-9.4,10.9-9.4-1.9l-0.3-32.8c0-17.1-9.3-24.3-20.7-24.3
	c-24.5,0-39.7,22.3-45.2,23.5c-4.8,0.9-8.1-2.2-11.6-6.7l1.6,1.7c-4.5-7.8-9.3-11.6-20-16.2c-10.7-4-26.6-2.8-26.6,16.2
	c0,23.8,24.7,27.6,42.8,27.6v21.9c0.1,4.6-0.8,8.9-2.3,12.9c-5.2,12.9-18,21.9-28.6,21.9c-16.5,0-26.3-8.4-31-21.9
	c-3.2-5.2-4.2-7.6-5.1-16.7c-1.9-16.2-1.4-31.9,14.7-48c13.3-13.8,11-20-0.9-20c-39.5,0-75.6,46.1-82.8,46.1
	c-14.7,0-20-46.1-28.1-46.1c-11.5,0-18.8,41.7-42.9,84.7c-2.7,4.9-5.7,9.9-8.9,14.7c-10.5,15.7-13.3,7.6-13.4-2.9v-11.9l0.1-62.3
	c0-29-30-25.7-41.4-0.5c-7.6,16-15.6,31.9-23.8,47.5c-7.1,14.3-11.4,11.9-11.9,2.4v-45.7c0-31.4-24.8-28.5-37.1-7.6l-38.3,66.1
	l-3.6,6.2c-7.1,11.4-10.9,11.4-11.4,2.9v-61.8c0-9.5-0.9-30.4-18.1-30.4c-22.9,0-46.1,78.9-58,78.9v-69.4c20-18.1,38.1-59,38.1-90.3
	c0-12.4-3.8-32.3-20-32.3c-24.7,0-43.8,30.5-43.8,79.9l-1.9,51.3c-5.5,14.6-14.2,17.1-36.5,19c-6.4-22.9-20-29.4-33-29.4
	c-12.8,0-19,9.5-19,18.5c0,21,18.7,27.5,38.5,27.7c1.4,9.7,1.3,20.2-1,29.4c-3.5,13.7-16.5,24.2-27.9,24.2
	c-20-0.9-31.4-7.6-35.5-24.2c-5.9-24.3,3.5-60.7,21.7-77c-38.5,10.9-75.6,40.4-88.9,58.5c-5.2-37.6-4.3-101.3,6.2-179.8
	c-48.5,0-103.7,59.9-103.7,123.6c0,25.7,8.1,48.5,13.3,60.9c1.4,3.8,6.2,12.3-1.4,15.7c-4.7-2.4-30-0.5-38,3.4
	c1.4-18.5-2.9-40.9-11.9-57.6c-8.5-3.8-12.8,0.5-18.5,7.1c4.8,9.5,8.1,25.2,7.1,36.6c-10.5-12.4-25.7-18.6-45.2-19.5
	c-9.5,0-28,5.3-28,20.9c0,22.8,22.3,32.3,71.3,32.3c6.2,0,10.9,2.4,9.5,11.9c-0.5,8.1,0,10.5,1.9,11.9c0,0,8.1-1.4,9.3-8.6
	c4-26.6,10.7-23.8,32.1-26.2c23.3,0,26.1-4.3,40.4,13.8c6.2,7.1,8.8,10.2,4.3,18.1c-17.1,27.6-34.3,76.3-34.3,96.3
	c0,21.9,1.9,54,24.8,54c17.1,0,45.6-38,57.1-78.9c7.6-30.5,8.1-89.5,5.2-114.3c0-1,0.1-2.1,0.4-3.2c3.4-15.8,30.4-35.7,41.5-36.1
	c-2.3,13.9-2.8,25.9-1.7,36.1c4.5,35.7,22.1,49,50.2,49c33.9,0,51.6-20.3,56-49c0.7-4.7,1-9.6,1-14.7c0-5.8-0.3-11-0.8-15.8
	c11.1-1.7,21-4.9,26-8c6.2-6.2,8.5-5.7,8.5,9.5v58.5c0,9.5,0.5,19.5,12.4,19.5c9.1,0,21.3-25.4,31.2-49c6.7-15.9,12.3-31,15.4-37.1
	c7.6-13.8,13.8-13.3,13.8-1.4v64.2c0,16.2,7.2,23.3,19,23.3c12.5,0,27.2-24.5,40.2-49c7.8-14.6,14.9-29.3,20.6-38.5
	c7.6-12.8,10.9-13.3,10.9-0.5v64.7c0,10.9,3.8,23.3,12.9,23.3c10.4,0,25.8-25.1,37.6-49h-0.2c-0.3-1.3,10.1-21.5,16.3-37.6
	c7.6-20.4,13.2-14.3,13.2,2.9l0.1,34.7v21.9c0,17.1,7.1,27.6,16.2,27.6c20.4,0,33.3-24.9,45.8-49.4c6.7-13.3,13.2-26.5,20.8-35.7
	c3.7,4.3,3.5,7.1,8.6,21.9c2.8,9.5-11.4,16.2-11.4,38c0,19,8.6,22.8,18.1,22.8c9.5,0,27.6-13.3,27.6-40.9c0-19-4.7-15.2-4.7-28.5
	c4.7-10.5,33.3-35.2,50.4-36.1c-8.6,8.6-15.2,29.5-15.2,43.8c0,5.1,0.5,10,1.5,14.7c5.9,28.4,28.5,49,57.5,49
	c31.4,0,49.5-24.7,53.8-48.5l0.1-0.5c2.4-14.6,3.2-27.3,0.9-45.2c6.6-1.4,15.4-7.6,19.5-11.9c11.9-12.1,15.7,0.5,15.7,18.1v62.3
	c0,18.1,3.3,26.2,13.8,26.2c11.5,0,18.2-20.9,30.5-49.4c5.6-12.8,12.1-27.1,20.8-41.9c6.7-14.3,10.9-12.8,10.9-0.5v49.5
	c0,30.4,7.6,41.9,20.9,41.9c13.8,0,28.1-16.2,37.6-35.2c3-6.5,4.3-10.9,4.6-13.8C2390.3,1242.7,2386.3,1243.5,2385,1245.7
	L2385,1245.7z M2191.9,1199.1c-21.5,0-23.3-13.3-15.2-13.3C2192.9,1185.8,2199.5,1199.1,2191.9,1199.1z M1365.9,1263.8
	c-19.5,0-39.5-9.1-39.5-19.5s5.2-13.3,15.7-10C1369.7,1248.1,1365.9,1254.8,1365.9,1263.8L1365.9,1263.8z M1447.7,1173.5
	c0-59.9,22.8-98.9,63.7-115.1c-28.5,64.7-27.6,156.9-17.1,198.8c-4.7,10.5-8.5,28.5-19,15.2
	C1453.4,1242.9,1447.7,1176.3,1447.7,1173.5L1447.7,1173.5z M1495.7,1385.5c-4.7,15.2-17.1,38.1-28.5,38.1
	c-13.3,0-16.2-30.5-16.2-30.5c1-33.3,20.9-86.5,36.1-103.6c9.5-7.6,11.4-4.7,11.4,6.7C1501.4,1313.3,1502.4,1364.6,1495.7,1385.5z
	 M1632.2,1188.2c5.6-2.3,11.2,4.6,15,15.3C1624.9,1202.2,1623.1,1192.1,1632.2,1188.2z M1744.9,1064.1c8.5,0,12.4,53.3-16.2,91.3
	c-2.4-9.1-2.9-27.3-3-36C1725.4,1118.1,1724.6,1064.1,1744.9,1064.1z M2044.5,1280.9c-6.6,0.5-11.9-4.7,0.5-23.8
	C2049.8,1249.8,2053.1,1280.9,2044.5,1280.9z"/>
<path class="st0" d="M1725.8,1119.4c0.1,0.2,0.1-0.4,0.1-2C1725.9,1112.5,1725.8,1114.4,1725.8,1119.4z"/>
</svg>
