<?xml version="1.0" encoding="utf-8"?>
<!-- Generator: Adobe Illustrator 23.0.5, SVG Export Plug-In . SVG Version: 6.00 Build 0)  -->
<svg version="1.1" id="Camada_1" xmlns="http://www.w3.org/2000/svg" xmlns:xlink="http://www.w3.org/1999/xlink" x="0px" y="0px"
	 viewBox="0 0 800 800" style="enable-background:new 0 0 800 800;" xml:space="preserve">
<style type="text/css">
	.st0{fill:#232733;}
</style>
<path class="st0" d="M125,487.5c0-115,57.5-235,125-235c37.5,0,67.5,22.5,115,90c-45,70-72.5,112.5-72.5,112.5
	c-60,95-80,115-112.5,115C147.5,572.5,125,542.5,125,487.5 M517.5,445L475,375c-10-17.5-22.5-35-32.5-50
	c37.5-57.5,67.5-87.5,105-87.5c75,0,135,112.5,135,252.5c0,52.5-17.5,82.5-52.5,82.5S582.5,550,517.5,445 M410,275
	c-55-72.5-102.5-100-157.5-100C137.5,175,50,327.5,50,487.5C50,587.5,97.5,650,177.5,650C235,650,275,622.5,350,492.5
	c0,0,30-55,52.5-92.5c7.5,12.5,15,25,22.5,40l35,60c67.5,115,105,152.5,172.5,152.5c77.5,0,120-65,120-167.5
	c-2.5-170-92.5-310-200-310C495,175,450,220,410,275"/>
</svg>
