<?xml version="1.0" encoding="utf-8"?>
<!-- Generator: Adobe Illustrator 23.0.5, SVG Export Plug-In . SVG Version: 6.00 Build 0)  -->
<svg version="1.1" id="Layer_1" xmlns="http://www.w3.org/2000/svg" xmlns:xlink="http://www.w3.org/1999/xlink" x="0px" y="0px"
	 viewBox="0 0 800 800" style="enable-background:new 0 0 800 800;" xml:space="preserve">
<style type="text/css">
	.st0{fill:#232733;}
</style>
<path class="st0" d="M298.3,293.2v-47.7c4.7-0.3,9.4-0.5,14.1-0.5c130.7-4.2,216.4,112.4,216.4,112.4s-92.4,128.4-191.7,128.4
	c-13.1,0-26.2-2.1-38.5-6.1V334.8c50.9,6.2,61.2,28.6,91.5,79.6l68-57.2c0,0-49.6-65.1-133.3-65.1
	C315.9,291.9,307.1,292.3,298.3,293.2L298.3,293.2z M298.3,135.4v71.2l14.1-0.8c181.6-6.3,300.4,149,300.4,149
	S476.7,520.3,335,520.3c-12.2,0-24.4-1.2-36.5-3.2v44.1c10,1.2,20.3,2.1,30.3,2.1c131.9,0,227.4-67.4,319.8-147
	c15.2,12.4,78,42.2,91,55.1C652,545.1,447.3,604.2,331.3,604.2c-11.2,0-21.8-0.5-32.4-1.7v62.1H800V135.4L298.3,135.4z M298.3,479.7
	v37.6c-122-21.8-155.9-148.7-155.9-148.7s58.6-64.7,155.9-75.4v41.3H298c-51-6.2-91,41.5-91,41.5S229.7,456.4,298.3,479.7z
	 M81.9,363.3c0,0,72.1-106.5,216.7-117.7v-38.9C138.4,219.7,0,355.1,0,355.1s78.4,226.7,298.3,247.4v-41.3
	C137,541.1,81.9,363.3,81.9,363.3L81.9,363.3z"/>
</svg>
