<?xml version="1.0" encoding="utf-8"?>
<!-- Generator: Adobe Illustrator 23.0.5, SVG Export Plug-In . SVG Version: 6.00 Build 0)  -->
<svg version="1.1" id="Layer_1" xmlns="http://www.w3.org/2000/svg" xmlns:xlink="http://www.w3.org/1999/xlink" x="0px" y="0px"
	 viewBox="0 0 800 800" style="enable-background:new 0 0 800 800;" xml:space="preserve">
<style type="text/css">
	.st0{fill:#232733;}
</style>
<title>Roku icon</title>
<path class="st0" d="M544.7,328.4l-75.1,75.1v-75.3h-65.2v191.5h65.2V442l78.4,77.7h82L530.4,420l82.6-82.5v113.7
	c0,37.8,22.6,72.6,79.8,72.6c27.2,0,52-15.4,64.1-29.3l29.3,25.3H800V328.4h-65v123.9c-7.3,12.8-17.6,20.9-33.4,20.9
	c-16.1,0-23.4-9.5-23.4-39.9V328.4H544.7z M391.6,424.1c0.2,55.3-44.4,100.3-99.7,100.5c-55.3,0.2-100.3-44.4-100.5-99.7
	c-0.2-55.3,44.4-100.3,99.7-100.5c0.1,0,0.1,0,0.2,0c55.2-0.3,100.1,44.3,100.4,99.4C391.6,423.8,391.6,423.9,391.6,424.1
	 M291.3,371.7c-17.3,0-31.9,23.5-31.9,52.4c0,28.9,14.6,52.3,31.9,52.3c17.6,0,32.3-23.4,32.3-52.3
	C323.5,395.1,308.9,371.7,291.3,371.7z M217.7,519.9h-74L85,438.4H65.2v81.3H0V275.3h93.3c53.9,0,97.8,36.7,97.8,81.7
	c0,27.5-16.8,52.1-42.4,67.1L217.7,519.9 M126.1,357c0.1-22.6-18.1-41-40.7-41.1c0,0,0,0-0.1,0H65.2v81.8h20.2
	C107.8,397.6,126,379.4,126.1,357L126.1,357z"/>
</svg>
